<svg width="120" height="120" viewBox="0 0 120 120" fill="none" xmlns="http://www.w3.org/2000/svg">
  <rect width="120" height="120" rx="28" fill="#FFF7EF"/>
  <path d="M28 42c0-12 9-22 20-22 6.4 0 12.2 3 16 7.6C68.8 23 74.6 20 81 20c11 0 20 10 20 22 0 8.6-4.6 16.4-11.3 20.6 0.6 2.8 0.9 5.6 0.9 8.4 0 20.7-15.7 37-30.6 37S30 91.7 30 70c0-2.8 0.3-5.6 0.9-8.4C32.6 58.4 28 50.6 28 42z" fill="#FF9A3D"/>
  <path d="M83.5 72.6c-5.3 3.9-12 6.4-19.6 6.4-7.6 0-14.3-2.5-19.6-6.4C43.5 88 54.8 99 62 99s18.5-11 21.5-26.4z" fill="#FFB971"/>
  <path d="M41 54c0-5.5 4.5-10 10-10s10 4.5 10 10v4c0 3.9-3.1 7-7 7h-6c-3.9 0-7-3.1-7-7v-4z" fill="#FFF7EF"/>
  <path d="M59 54c0-5.5 4.5-10 10-10s10 4.5 10 10v4c0 3.9-3.1 7-7 7h-6c-3.9 0-7-3.1-7-7v-4z" fill="#FFF7EF"/>
  <circle cx="51" cy="54" r="3" fill="#2C2C2C"/>
  <circle cx="69" cy="54" r="3" fill="#2C2C2C"/>
  <path d="M60 62c2.8 0 5 2.2 5 5 0 4.4-3.6 8-8 8s-8-3.6-8-8c0-2.8 2.2-5 5-5h6z" fill="#FF7A00"/>
  <path d="M62 75c4.4 0 8-3.6 8-8 0-2.8-2.2-5-5-5h-6c-2.8 0-5 2.2-5 5 0 4.4 3.6 8 8 8z" fill="#FF8F34"/>
  <path d="M60 69c1.7 0 3-1.3 3-3s-1.3-3-3-3-3 1.3-3 3 1.3 3 3 3z" fill="#2C2C2C"/>
  <path d="M44 40c3.6-6.4 12-7.3 16-1.5l-7.5 4.5L44 40z" fill="#FFB971"/>
  <path d="M76 40c-3.6-6.4-12-7.3-16-1.5l7.5 4.5L76 40z" fill="#FFB971"/>
</svg>
