<svg xmlns="http://www.w3.org/2000/svg" viewBox="0 0 128 128" role="img" aria-labelledby="title desc">
  <title id="title">女性講師のアイコン</title>
  <desc id="desc">落ち着いた雰囲気の女性シルエット</desc>
  <rect width="128" height="128" fill="#ffffff"/>
  <path fill="#111111" d="M32 108c0-19.9 14.8-36.6 34-39.5-7.4-5.5-12-15-12-25.5C54 25.5 64.5 15 78 15s24 10.5 24 28c0 10.5-4.6 20-12 25.5 19.2 2.9 34 19.6 34 39.5V128H32z"/>
  <path fill="#111111" d="M86 22c-3.3-4.4-8.8-7-14-7s-10.7 2.6-14 7c-6.5 8.6-10 20.8-10 32 0 10.9 3.1 18.5 9.2 23.8L64 74l7.8 3.8C77.9 72.5 81 64.9 81 54c0-11.2-3.5-23.4-10-32z"/>
  <path fill="#ffffff" d="M40 118h76v6H40z" opacity=".15"/>
</svg>
