<svg xmlns="http://www.w3.org/2000/svg" viewBox="0 0 128 128" role="img" aria-labelledby="title desc">
  <title id="title">女性講師のアイコン</title>
  <desc id="desc">前髪のある女性のシルエット</desc>
  <rect width="128" height="128" fill="#ffffff"/>
  <path fill="#111111" d="M92 84c8.8 6.2 14 16.3 14 27.1V128H22v-16.9C22 100.3 27.2 90.2 36 84c5.7-4 12.6-6.5 20-7.2-5.5-4.4-9-11.1-9-18.6V41c0-13.6 10.4-25 23-25s23 11.4 23 25v17.2c0 7.4-3.4 14.2-9 18.6 7.4.7 14.3 3.2 20 7.2z"/>
  <path fill="#111111" d="M88 36c0-8.8-7.2-16-16-16h-16c-8.8 0-16 7.2-16 16l4 7 4-7 4 7 4-7 4 7 4-7 4 7 4-7 4 7 4-7 4 7 4-7z"/>
</svg>
